<svg width="1920" height="1080" viewBox="0 0 1920 1080" fill="none" xmlns="http://www.w3.org/2000/svg">
<g clip-path="url(#clip0_155_720)">
<path d="M1920 66.2439H0M1920 133.488H0M83.2848 -1V133.284M167.236 -1V133.284M249.854 -1V133.284M333.805 -1V133.284M417.756 -1V133.284M500.375 -1V133.284M584.326 -1V133.284M668.277 -1V133.284M750.895 -1V133.284M834.846 -1V133.284M918.797 -1V133.284M1001.42 -1V133.284M1085.37 -1V133.284M1167.99 -1V133.284M1251.94 -1V133.284M1335.89 -1V133.284M1418.51 -1V133.284M1502.46 -1V133.284M1586.41 -1V133.284M1669.03 -1V133.284M1752.98 -1V133.284M1836.93 -1V133.284" stroke="#575757" stroke-opacity="0.12"/>
</g>
<g clip-path="url(#clip1_155_720)">
<path d="M1920 202.264H0M1920 269.508H0M83.2848 135.02V269.304M167.236 135.02V269.304M249.854 135.02V269.304M333.805 135.02V269.304M417.756 135.02V269.304M500.375 135.02V269.304M584.326 135.02V269.304M668.277 135.02V269.304M750.895 135.02V269.304M834.846 135.02V269.304M918.797 135.02V269.304M1001.42 135.02V269.304M1085.37 135.02V269.304M1167.99 135.02V269.304M1251.94 135.02V269.304M1335.89 135.02V269.304M1418.51 135.02V269.304M1502.46 135.02V269.304M1586.41 135.02V269.304M1669.03 135.02V269.304M1752.98 135.02V269.304M1836.93 135.02V269.304" stroke="#575757" stroke-opacity="0.12"/>
</g>
<g clip-path="url(#clip2_155_720)">
<path d="M1920 337.261H0M1920 404.505H0M83.2848 270.017V404.301M167.236 270.017V404.301M249.854 270.017V404.301M333.805 270.017V404.301M417.756 270.017V404.301M500.375 270.017V404.301M584.326 270.017V404.301M668.277 270.017V404.301M750.895 270.017V404.301M834.846 270.017V404.301M918.797 270.017V404.301M1001.42 270.017V404.301M1085.37 270.017V404.301M1167.99 270.017V404.301M1251.94 270.017V404.301M1335.89 270.017V404.301M1418.51 270.017V404.301M1502.46 270.017V404.301M1586.41 270.017V404.301M1669.03 270.017V404.301M1752.98 270.017V404.301M1836.93 270.017V404.301" stroke="#575757" stroke-opacity="0.12"/>
</g>
<g clip-path="url(#clip3_155_720)">
<path d="M1920 472.258H0M1920 539.502H0M83.2848 405.014V539.298M167.236 405.014V539.298M249.854 405.014V539.298M333.805 405.014V539.298M417.756 405.014V539.298M500.375 405.014V539.298M584.326 405.014V539.298M668.277 405.014V539.298M750.895 405.014V539.298M834.846 405.014V539.298M918.797 405.014V539.298M1001.42 405.014V539.298M1085.37 405.014V539.298M1167.99 405.014V539.298M1251.94 405.014V539.298M1335.89 405.014V539.298M1418.51 405.014V539.298M1502.46 405.014V539.298M1586.41 405.014V539.298M1669.03 405.014V539.298M1752.98 405.014V539.298M1836.93 405.014V539.298" stroke="#575757" stroke-opacity="0.12"/>
</g>
<g clip-path="url(#clip4_155_720)">
<path d="M1920 607.255H0M1920 674.499H0M83.2848 540.011V674.295M167.236 540.011V674.295M249.854 540.011V674.295M333.805 540.011V674.295M417.756 540.011V674.295M500.375 540.011V674.295M584.326 540.011V674.295M668.277 540.011V674.295M750.895 540.011V674.295M834.846 540.011V674.295M918.797 540.011V674.295M1001.42 540.011V674.295M1085.37 540.011V674.295M1167.99 540.011V674.295M1251.94 540.011V674.295M1335.89 540.011V674.295M1418.51 540.011V674.295M1502.46 540.011V674.295M1586.41 540.011V674.295M1669.03 540.011V674.295M1752.98 540.011V674.295M1836.93 540.011V674.295" stroke="#575757" stroke-opacity="0.12"/>
</g>
<g clip-path="url(#clip5_155_720)">
<path d="M1920 742.252H0M1920 809.496H0M83.2848 675.009V809.293M167.236 675.009V809.293M249.854 675.009V809.293M333.805 675.009V809.293M417.756 675.009V809.293M500.375 675.009V809.293M584.326 675.009V809.293M668.277 675.009V809.293M750.895 675.009V809.293M834.846 675.009V809.293M918.797 675.009V809.293M1001.42 675.009V809.293M1085.37 675.009V809.293M1167.99 675.009V809.293M1251.94 675.009V809.293M1335.89 675.009V809.293M1418.51 675.009V809.293M1502.46 675.009V809.293M1586.41 675.009V809.293M1669.03 675.009V809.293M1752.98 675.009V809.293M1836.93 675.009V809.293" stroke="#575757" stroke-opacity="0.12"/>
</g>
<g clip-path="url(#clip6_155_720)">
<path d="M1920 877.25H0M1920 944.493H0M83.2848 810.006V944.29M167.236 810.006V944.29M249.854 810.006V944.29M333.805 810.006V944.29M417.756 810.006V944.29M500.375 810.006V944.29M584.326 810.006V944.29M668.277 810.006V944.29M750.895 810.006V944.29M834.846 810.006V944.29M918.797 810.006V944.29M1001.42 810.006V944.29M1085.37 810.006V944.29M1167.99 810.006V944.29M1251.94 810.006V944.29M1335.89 810.006V944.29M1418.51 810.006V944.29M1502.46 810.006V944.29M1586.41 810.006V944.29M1669.03 810.006V944.29M1752.98 810.006V944.29M1836.93 810.006V944.29" stroke="#575757" stroke-opacity="0.12"/>
</g>
<g clip-path="url(#clip7_155_720)">
<path d="M1920 1012.25H0M1920 1079.49H0M83.2848 945.003V1079.29M167.236 945.003V1079.29M249.854 945.003V1079.29M333.805 945.003V1079.29M417.756 945.003V1079.29M500.375 945.003V1079.29M584.326 945.003V1079.29M668.277 945.003V1079.29M750.895 945.003V1079.29M834.846 945.003V1079.29M918.797 945.003V1079.29M1001.42 945.003V1079.29M1085.37 945.003V1079.29M1167.99 945.003V1079.29M1251.94 945.003V1079.29M1335.89 945.003V1079.29M1418.51 945.003V1079.29M1502.46 945.003V1079.29M1586.41 945.003V1079.29M1669.03 945.003V1079.29M1752.98 945.003V1079.29M1836.93 945.003V1079.29" stroke="#575757" stroke-opacity="0.12"/>
</g>
<defs>
<clipPath id="clip0_155_720">
<rect width="1920" height="134.997" fill="white" transform="translate(0 -1)"/>
</clipPath>
<clipPath id="clip1_155_720">
<rect width="1920" height="134.997" fill="white" transform="translate(0 135.02)"/>
</clipPath>
<clipPath id="clip2_155_720">
<rect width="1920" height="134.997" fill="white" transform="translate(0 270.017)"/>
</clipPath>
<clipPath id="clip3_155_720">
<rect width="1920" height="134.997" fill="white" transform="translate(0 405.014)"/>
</clipPath>
<clipPath id="clip4_155_720">
<rect width="1920" height="134.997" fill="white" transform="translate(0 540.011)"/>
</clipPath>
<clipPath id="clip5_155_720">
<rect width="1920" height="134.997" fill="white" transform="translate(0 675.009)"/>
</clipPath>
<clipPath id="clip6_155_720">
<rect width="1920" height="134.997" fill="white" transform="translate(0 810.006)"/>
</clipPath>
<clipPath id="clip7_155_720">
<rect width="1920" height="134.997" fill="white" transform="translate(0 945.003)"/>
</clipPath>
</defs>
</svg>
